<svg version="1.0" xmlns="http://www.w3.org/2000/svg" width="96px" height="96px">
    <g transform="translate(0.000000,96.000000) scale(0.100000,-0.100000)" fill="#fff" stroke="none">
        <path d="M420 840 l0 -60 30 0 30 0 0 60 0 60 -30 0 -30 0 0 -60z"/>
        <path d="M172 788 c-18 -18 -15 -32 12 -58 45 -41 87 1 46 46 -26 27 -40 30 -58 12z"/>
        <path d="M645 750 l-49 -50 22 -22 22 -23 53 53 c43 43 50 55 41 70 -19 30 -38 24 -89 -28z"/>
        <path d="M60 510 c0 -27 3 -30 30 -30 27 0 30 3 30 30 0 27 -3 30 -30 30 -27 0 -30 -3 -30 -30z"/>
        <path d="M660 510 l0 -30 90 0 90 0 0 30 0 30 -90 0 -90 0 0 -30z"/>
        <path d="M595 360 c-18 -20 -18 -22 41 -81 60 -61 78 -68 98 -37 9 15 1 28 -49 78 -33 33 -62 60 -66 60 -3 0 -14 -9 -24 -20z"/>
        <path d="M175 281 c-33 -38 10 -80 46 -44 19 19 19 19 -4 41 -23 22 -24 22-42 3z"/>
        <path d="M420 210 l0 -90 30 0 30 0 0 90 0 90 -30 0 -30 0 0 -90z"/>
    </g>
</svg>
