<svg version="1.0" xmlns="http://www.w3.org/2000/svg" width="16px" height="16px" viewBox="0 0 96 96">
    <g transform="translate(0.000000,96.000000) scale(0.100000,-0.100000)" fill="#fff" stroke="none">
        <path d="M395 791 c-132 -61 -165 -222 -68 -328 19 -21 30 -39 24 -41 -7 -2 -33 -21 -60 -42 -54 -43 -96 -117 -107 -187 -7 -43 -6 -43 25 -43 22 0 31 5 31 16 0 42 28 100 67 143 l43 46 21 -28 c41 -53 139 -80 139 -38 0 11 2 26 5 33 4 11 -2 13 -27 10 -24 -2 -40 3 -56 19 -29 26 -16 39 38 39 121 1 220 95 220 210 0 149 -161 253 -295 191z m155 -61 c45 -23 80 -80 80 -130 0 -76 -74 -150 -150 -150 -76 0 -150 74 -150 150 0 48 35 107 78 129 48 26 93 26 142 1z"/>
        <path d="M604 356 c-50 -50 -48 -93 9 -153 36 -38 50 -46 89 -50 36 -4 59 -16 108 -55 l62 -50 20 20 20 20 -50 62 c-39 49 -51 72 -55 108 -4 39 -12 53 -50 89 -60 57 -103 59 -153 9z m119 -54 c41 -43 32 -92 -18 -92 -26 0 -75 49 -75 76 0 49 53 58 93 16z"/>
    </g>
</svg>
