<svg version="1.0" xmlns="http://www.w3.org/2000/svg" width="96.000000pt" height="96pt">
    <g transform="translate(0.000000,96.000000) scale(0.100000,-0.100000)" fill="#000000" stroke="none">
        <path d="M420 690 l0 -209 -55 -3 -56 -3 73 -73 73 -72 75 75 74 75 -62 0 -62 0 0 210 0 210 -30 0 -30 0 0 -210z"/>
        <path d="M195 315 c18 -61 51 -109 97 -141 156 -109 359 -40 413 141 l14 46 -31 -3 c-27 -2 -34 -9 -42 -37 -21 -74 -114 -141 -196 -141 -79 0 -180 72 -198 142 -7 28 -13 34 -40 36 l-31 3 14 -46z"/>
    </g>
</svg>
