<svg version="1.0" xmlns="http://www.w3.org/2000/svg" width="96pt" height="96pt" viewBox="0 0 96 96">
    <g transform="translate(0.000000,96.000000) scale(0.100000,-0.100000)" fill="#fff" stroke="none">
        <path d="M405 821 c-48 -22 -69 -44 -90 -94 -23 -55 -18 -95 19 -174 l35 -72 -91 -3 -90 -3 -65 -163 c-36 -89 -63 -169 -59 -177 8 -23 824 -23 832 0 4 8 -23 88 -59 177 l-65 163 -90 3 -91 3 35 72 c38 81 42 123 15 182 -22 48 -44 69 -94 90 -48 20 -93 19 -142 -4z m157 -79 c50 -49 48 -91 -6 -197 -26 -49 -53 -99 -61 -109 -15 -20 -15 -20 -30 0 -8 10 -35 60 -61 109 -38 75 -45 97 -41 128 6 40 37 82 72 98 36 16 96 3 127 -29z m-121 -377 c18 -30 36 -55 39 -55 3 0 21 25 39 55 l34 56 89 -3 90 -3 44 -110 c24 -60 44 -113 44 -117 0 -4 -153 -8 -340 -8 -187 0 -340 4 -340 8 0 4 16 48 36 98 20 49 40 99 45 112 8 21 14 22 98 22 l89 0 33 -55z"/>
        <path d="M440 700 c-11 -11 -20 -29 -20 -40 0 -11 9 -29 20 -40 11 -11 29 -20 40 -20 26 0 60 34 60 60 0 11 -9 29 -20 40 -11 11 -29 20 -40 20 -11 0 -29 -9 -40 -20z"/>
    </g>
</svg>
