<svg version="1.0" xmlns="http://www.w3.org/2000/svg" width="96px" height="96px">
    <g transform="translate(0.000000,96.000000) scale(0.100000,-0.100000)" fill="#ffffff" stroke="none">
        <path d="M89 811 l-29 -29 0 -272 0 -272 29 -29 29 -29 362 0 362 0 29 29 29 29 0 272 0 272 -29 29 -29 29 -362 0 -362 0 -29 -29z m720 -36 c-24 -24 -326 -224 -334 -221 -10 4 -315 212 -324 221 -2 3 146 5 329 5 183 0 331 -2 329 -5z m-502 -182 c90 -62 168 -113 173 -113 6 0 84 51 172 113 89 61 168 116 175 120 11 7 13 -31 13 -203 l0 -211 -76 63 c-109 91 -109 91 -133 78 -12 -6 -21 -15 -21 -20 0 -5 45 -46 100 -92 l101 -83 -166 -3 c-91 -1 -239 -1 -330 0 l-166 3 101 83 c55 46 100 87 100 92 0 5 -9 14 -21 20 -24 13 -24 13 -133 -78 l-76 -63 0 211 c0 166 3 210 13 203 6 -4 85 -58 174 -120z"/>
    </g>
</svg>
