<svg version="1.0" xmlns="http://www.w3.org/2000/svg" width="96px" height="96px">
    <g transform="translate(0.000000,96.000000) scale(0.100000,-0.100000)" fill="#fff" stroke="none">
        <path d="M132 825 c-124 -132 -96 -212 162 -471 264 -264 349 -289 491 -145 l50 51 -93 92 -92 92 -38 -37 -39 -38 -59 44 c-66 49 -124 109 -171 178 l-31 45 35 38 36 38 -89 89 c-49 49 -92 89 -95 89 -4 0 -34 -29 -67 -65z m121 -63 l47 -48 -25 -24 c-42 -40 -31 -73 63 -193 69 -88 201 -187 248 -187 10 0 30 11 44 25 l26 25 48 -49 c29 -29 45 -54 41 -61 -14 -23 -89 -70 -112 -70 -115 0 -513 395 -513 510 0 32 59 120 80 120 3 0 27 -22 53 -48z"/>
    </g>
</svg>
